<?xml version="1.0" encoding="UTF-8" standalone="no"?>
<svg
   xmlns:dc="http://purl.org/dc/elements/1.1/"
   xmlns:cc="http://creativecommons.org/ns#"
   xmlns:rdf="http://www.w3.org/1999/02/22-rdf-syntax-ns#"
   xmlns:svg="http://www.w3.org/2000/svg"
   xmlns="http://www.w3.org/2000/svg"
   viewBox="0 0 711.68402 711.68402"
   height="711.68402"
   width="711.68402"
   xml:space="preserve"
   id="svg2"
   version="1.1"><metadata
     id="metadata8"><rdf:RDF><cc:Work
         rdf:about=""><dc:format>image/svg+xml</dc:format><dc:type
           rdf:resource="http://purl.org/dc/dcmitype/StillImage" /></cc:Work></rdf:RDF></metadata><defs
     id="defs6"><clipPath
       id="clipPath18"
       clipPathUnits="userSpaceOnUse"><path
         id="path16"
         d="M 266.881,533.763 C 119.487,533.763 0,414.277 0,266.882 v 0 C 0,119.487 119.487,0 266.881,0 v 0 c 147.395,0 266.882,119.487 266.882,266.882 v 0 c 0,147.395 -119.487,266.881 -266.882,266.881 z" /></clipPath><linearGradient
       id="linearGradient28"
       spreadMethod="pad"
       gradientTransform="matrix(-2.32e-5,-531.8158,-531.8158,2.32e-5,266.88135,533.76318)"
       gradientUnits="userSpaceOnUse"
       y2="0"
       x2="1"
       y1="0"
       x1="0"><stop
         id="stop24"
         offset="0"
         style="stop-opacity:1;stop-color:#42bde9" /><stop
         id="stop26"
         offset="1"
         style="stop-opacity:1;stop-color:#23a8dd" /></linearGradient><clipPath
       id="clipPath38"
       clipPathUnits="userSpaceOnUse"><path
         id="path36"
         d="M 0,533.763 H 533.763 V 0 H 0 Z" /></clipPath></defs><g
     transform="matrix(1.3333333,0,0,-1.3333333,0,711.684)"
     id="g10"><g
       id="g12"><g
         clip-path="url(#clipPath18)"
         id="g14"><g
           id="g20"><g
             id="g22"><path
               id="path30"
               style="fill:url(#linearGradient28);stroke:none"
               d="M 266.881,533.763 C 119.487,533.763 0,414.277 0,266.882 v 0 C 0,119.487 119.487,0 266.881,0 v 0 c 147.395,0 266.882,119.487 266.882,266.882 v 0 c 0,147.395 -119.487,266.881 -266.882,266.881 z" /></g></g></g></g><g
       id="g32"><g
         clip-path="url(#clipPath38)"
         id="g34"><g
           transform="translate(396.7412,380.2417)"
           id="g40"><path
             id="path42"
             style="fill:#ffffff;fill-opacity:1;fill-rule:nonzero;stroke:none"
             d="m 0,0 -47.667,-240.333 c 0,0 -6.667,-16.667 -25,-8.667 l -110,84.334 -40,19.333 -67.333,22.667 c 0,0 -10.333,3.666 -11.333,11.666 -1,8 11.666,12.334 11.666,12.334 L -22,6.334 C -22,6.334 0,16 0,0" /></g><g
           transform="translate(205.6191,142.6074)"
           id="g44"><path
             id="path46"
             style="fill:#d3e6f2;fill-opacity:1;fill-rule:nonzero;stroke:none"
             d="m 0,0 c 0,0 -3.211,0.301 -7.211,12.969 -4,12.666 -24.334,79.332 -24.334,79.332 l 161.667,102.667 c 0,0 9.333,5.666 9,0 0,0 1.667,-1 -3.333,-5.667 -5,-4.667 -127,-114.332 -127,-114.332" /></g><g
           transform="translate(256.251,183.2402)"
           id="g48"><path
             id="path50"
             style="fill:#b6d0e5;fill-opacity:1;fill-rule:nonzero;stroke:none"
             d="m 0,0 -43.51,-39.67 c 0,0 -3.401,-2.58 -7.122,-0.963 l 8.331,73.686" /></g></g></g></g></svg>